<svg width="32" height="33" viewBox="0 0 32 33" fill="none" xmlns="http://www.w3.org/2000/svg">
<path d="M15.9993 2.76074L14.264 9.70206C13.9254 11.0565 13.7561 11.7338 13.4035 12.2849C13.0915 12.7723 12.6776 13.1863 12.1901 13.4982C11.6391 13.8508 10.9618 14.0201 9.60734 14.3587L2.66602 16.0941L9.60733 17.8294C10.9618 18.168 11.6391 18.3373 12.1901 18.69C12.6776 19.0019 13.0916 19.4158 13.4035 19.9033C13.7561 20.4544 13.9254 21.1316 14.264 22.4861L15.9994 29.4274L17.7347 22.4861C18.0733 21.1316 18.2426 20.4544 18.5952 19.9033C18.9071 19.4158 19.3211 19.0019 19.8086 18.69C20.3596 18.3373 21.0369 18.168 22.3914 17.8294L29.3327 16.0941L22.3914 14.3587C21.0369 14.0201 20.3596 13.8508 19.8086 13.4982C19.3211 13.1863 18.9071 12.7723 18.5952 12.2849C18.2426 11.7338 18.0733 11.0565 17.7347 9.70206L15.9993 2.76074Z" stroke="#5051F9" stroke-width="2.35469" stroke-linecap="round" stroke-linejoin="round"/>
</svg>
