<svg width="20" height="19" viewBox="0 0 20 19" fill="none" xmlns="http://www.w3.org/2000/svg">
<path d="M9.99967 0.261719C12.4903 0.261719 12.801 0.270885 13.7782 0.316719C14.7544 0.362552 15.419 0.515636 16.0038 0.742969C16.6088 0.975802 17.1185 1.29114 17.6282 1.79989C18.0943 2.25812 18.455 2.81243 18.6851 3.42422C18.9115 4.00814 19.0655 4.67364 19.1113 5.64989C19.1544 6.62705 19.1663 6.9378 19.1663 9.42839C19.1663 11.919 19.1572 12.2297 19.1113 13.2069C19.0655 14.1831 18.9115 14.8477 18.6851 15.4326C18.4556 16.0447 18.0949 16.5991 17.6282 17.0569C17.1698 17.5228 16.6155 17.8835 16.0038 18.1138C15.4199 18.3402 14.7544 18.4942 13.7782 18.5401C12.801 18.5831 12.4903 18.5951 9.99967 18.5951C7.50909 18.5951 7.19834 18.5859 6.22117 18.5401C5.24492 18.4942 4.58034 18.3402 3.99551 18.1138C3.38347 17.8842 2.82907 17.5234 2.37117 17.0569C1.90496 16.5987 1.54428 16.0444 1.31426 15.4326C1.08692 14.8486 0.933841 14.1831 0.888008 13.2069C0.844924 12.2297 0.833008 11.919 0.833008 9.42839C0.833008 6.9378 0.842174 6.62705 0.888008 5.64989C0.933841 4.67272 1.08692 4.00905 1.31426 3.42422C1.54364 2.81205 1.90441 2.2576 2.37117 1.79989C2.82921 1.33351 3.38357 0.972804 3.99551 0.742969C4.58034 0.515636 5.24401 0.362552 6.22117 0.316719C7.19834 0.273635 7.50909 0.261719 9.99967 0.261719ZM9.99967 4.84505C8.7841 4.84505 7.61831 5.32794 6.75877 6.18748C5.89923 7.04702 5.41634 8.21281 5.41634 9.42839C5.41634 10.644 5.89923 11.8097 6.75877 12.6693C7.61831 13.5288 8.7841 14.0117 9.99967 14.0117C11.2153 14.0117 12.381 13.5288 13.2406 12.6693C14.1001 11.8097 14.583 10.644 14.583 9.42839C14.583 8.21281 14.1001 7.04702 13.2406 6.18748C12.381 5.32794 11.2153 4.84505 9.99967 4.84505ZM15.958 4.61589C15.958 4.31199 15.8373 4.02054 15.6224 3.80566C15.4075 3.59077 15.1161 3.47005 14.8122 3.47005C14.5083 3.47005 14.2168 3.59077 14.0019 3.80566C13.7871 4.02054 13.6663 4.31199 13.6663 4.61589C13.6663 4.91978 13.7871 5.21123 14.0019 5.42611C14.2168 5.641 14.5083 5.76172 14.8122 5.76172C15.1161 5.76172 15.4075 5.641 15.6224 5.42611C15.8373 5.21123 15.958 4.91978 15.958 4.61589ZM9.99967 6.67839C10.729 6.67839 11.4285 6.96812 11.9442 7.48384C12.4599 7.99957 12.7497 8.69904 12.7497 9.42839C12.7497 10.1577 12.4599 10.8572 11.9442 11.3729C11.4285 11.8887 10.729 12.1784 9.99967 12.1784C9.27033 12.1784 8.57086 11.8887 8.05513 11.3729C7.53941 10.8572 7.24967 10.1577 7.24967 9.42839C7.24967 8.69904 7.53941 7.99957 8.05513 7.48384C8.57086 6.96812 9.27033 6.67839 9.99967 6.67839Z" fill="white"/>
</svg>
