<svg width="108" height="29" viewBox="0 0 108 29" fill="none" xmlns="http://www.w3.org/2000/svg">
<path d="M8.35434 0H19.7177L11.3633 12.4096H0L8.35434 0Z" fill="#7296FF"/>
<path d="M8.40087 13.0054L5.16504 17.812H17.0674L25.4217 5.40234H16.637L11.5185 13.0054H8.40087Z" fill="#5051F9"/>
<path d="M14.103 18.4077L10.8672 23.2143H22.7695L31.1239 10.8047H22.3392L17.2207 18.4077H14.103Z" fill="#5051F9"/>
<path d="M38.4195 4.30438H41.8112V22H45.0554V4.30438H48.4471V1.35511H38.4195V4.30438ZM59.9623 22C59.6379 21.2332 59.6084 20.4959 59.6084 19.4931V16.3079C59.6084 14.1549 59.0776 12.5918 57.4555 11.9135C58.9006 11.2352 59.5789 9.84901 59.5789 7.72553V6.10343C59.5789 2.91822 58.1338 1.35511 54.7716 1.35511H49.8758V22H53.12V13.5946H54.2408C55.7154 13.5946 56.3642 14.3024 56.3642 16.2194V19.4636C56.3642 21.1447 56.4822 21.4691 56.6592 22H59.9623ZM54.6831 4.30438C55.8334 4.30438 56.3347 4.95322 56.3347 6.42785V8.46285C56.3347 10.1144 55.5974 10.6453 54.3882 10.6453H53.12V4.30438H54.6831ZM61.742 22H64.9862V1.35511H61.742V22ZM74.2891 22H77.6218V1.35511H74.7315V13.7126L71.3988 1.35511H67.3288V22H70.2486V7.0472L74.2891 22ZM79.9446 22H83.1888V1.35511H79.9446V22ZM84.6171 4.30438H88.0087V22H91.2529V4.30438H94.6446V1.35511H84.6171V4.30438ZM99.1111 22H102.355V15.1577L106.455 1.35511H103.358L100.881 10.7633L98.4033 1.35511H95.0117L99.1111 15.1577V22Z" fill="#5051F9"/>
</svg>
