<svg width="24" height="25" viewBox="0 0 24 25" fill="none" xmlns="http://www.w3.org/2000/svg">
<g clip-path="url(#clip0_57_4795)">
<path d="M12 22.4287C6.477 22.4287 2 17.9517 2 12.4287C2 6.90571 6.477 2.42871 12 2.42871C17.523 2.42871 22 6.90571 22 12.4287C22 17.9517 17.523 22.4287 12 22.4287ZM8.89 13.5987L8.903 13.5917L9.773 16.4617C9.885 16.7727 10.039 16.8287 10.226 16.8027C10.414 16.7777 10.513 16.6767 10.636 16.5587L11.824 15.4107L14.374 17.2987C14.84 17.5557 15.175 17.4227 15.291 16.8667L16.948 9.04471C17.131 8.31671 16.811 8.02471 16.246 8.25671L6.513 12.0167C5.849 12.2827 5.853 12.6547 6.393 12.8197L8.89 13.5997V13.5987Z" fill="white"/>
</g>
<defs>
<clipPath id="clip0_57_4795">
<rect width="24" height="24" fill="white" transform="translate(0 0.428711)"/>
</clipPath>
</defs>
</svg>
