<svg width="20" height="15" viewBox="0 0 20 15" fill="none" xmlns="http://www.w3.org/2000/svg">
<path d="M18.7474 2.38554C19.1663 4.01904 19.1663 7.42904 19.1663 7.42904C19.1663 7.42904 19.1663 10.839 18.7474 12.4725C18.5146 13.3755 17.8335 14.0859 16.9709 14.326C15.4043 14.7624 9.99967 14.7624 9.99967 14.7624C9.99967 14.7624 4.59776 14.7624 3.02842 14.326C2.16217 14.0822 1.48201 13.3727 1.25192 12.4725C0.833008 10.839 0.833008 7.42904 0.833008 7.42904C0.833008 7.42904 0.833008 4.01904 1.25192 2.38554C1.48476 1.48262 2.16584 0.772203 3.02842 0.532036C4.59776 0.095703 9.99967 0.0957031 9.99967 0.0957031C9.99967 0.0957031 15.4043 0.095703 16.9709 0.532036C17.8372 0.77587 18.5173 1.48537 18.7474 2.38554ZM8.16634 10.6374L13.6663 7.42904L8.16634 4.2207V10.6374Z" fill="white"/>
</svg>
